<svg width="609" height="460" xmlns="http://www.w3.org/2000/svg" xmlns:xlink="http://www.w3.org/1999/xlink" xml:space="preserve" overflow="hidden"><defs><clipPath id="clip0"><rect x="655" y="130" width="609" height="460"/></clipPath></defs><g clip-path="url(#clip0)" transform="translate(-655 -130)"><path d="M338.805 255.557C337.401 256.382 335.601 256.795 333.421 256.795L327.905 256.795 330.283 248.588 333.52 248.588C336.245 248.588 338.161 248.885 339.267 249.479 340.373 250.074 340.918 251.098 340.918 252.551 340.918 253.724 340.208 254.714 338.805 255.557ZM496.663 295.752 496.597 295.752C496.498 296.347 496.399 296.809 496.284 297.139L493.245 305.974 500.032 305.974 496.961 297.139C496.862 296.859 496.763 296.38 496.663 295.752ZM494.219 250.074 489.678 250.074 483.171 273.029 489.1 273.029C494.5 273.029 498.728 271.724 501.783 269.098 504.838 266.489 506.357 262.939 506.357 258.447 506.357 255.639 505.366 253.542 503.368 252.138 501.37 250.735 498.331 250.041 494.203 250.041ZM436.056 250.107C434.983 249.298 433.365 248.901 431.201 248.901L428.047 248.901 425.025 258.843 428.955 258.843C431.598 258.843 433.712 258.331 435.297 257.291 436.882 256.25 437.675 254.995 437.675 253.509 437.675 252.023 437.13 250.916 436.056 250.124ZM335.601 273.144C337.186 272.269 337.979 271.063 337.979 269.561 337.979 268.372 337.467 267.414 336.427 266.687 335.386 265.961 333.966 265.597 332.133 265.597L325.511 265.597 322.819 274.465 329.028 274.465C331.836 274.465 334.032 274.02 335.617 273.144ZM608.745 435.181C600.934 431.515 597.615 427.238 596.062 423.853 595.633 422.928 593.288 417.594 589.027 413.961 588.449 413.465 587.491 412.755 586.6 412.97 585.146 413.3 584.007 415.909 584.585 419.443 586.715 432.952 588.086 438.517 588.978 440.565 589.077 440.78 589.391 441.473 589.539 442.481 589.919 444.892 589.011 447.071 588.086 448.64 585.873 444.066 584.634 440.135 583.891 437.312 582.702 432.77 582.223 428.708 579.135 424.166 578.177 422.763 576.493 420.302 575.353 420.649 573.537 421.21 574.28 428.625 574.792 433.596 575.205 437.757 576.031 443.554 577.748 450.473 575.964 449.862 573.438 448.69 571.341 446.378 567.873 442.58 567.146 437.493 566.37 431.994 565.759 427.717 565.808 424.546 563.628 420.401 561.994 417.28 560.937 417.148 560.524 417.148 558.839 417.082 556.659 419.476 556.841 423.159 556.973 427.519 557.518 446.114 556.891 453.595 556.808 454.585 556.445 458.516 554.975 458.83 554.463 458.945 553.72 458.615 553.258 458.252 552.564 457.707 552.349 456.996 552.283 456.765 549.096 434.867 546.569 429.963 544.802 429.963 544.158 429.963 542.887 430.623 542.342 431.664 541.565 433.15 542.622 434.636 541.83 437.047 541.632 437.658 541.367 438.121 541.202 438.402 540.938 438.534 540.558 438.682 540.063 438.715 535.885 438.98 532.219 429.633 531.624 428.097 529.048 421.524 529.94 418.799 527.974 410.938 526.719 405.951 525.117 402.087 524.027 399.676 520.956 399.89 518.578 399.362 517.075 398.883 515.506 398.371 513.508 397.744 513.244 396.423 513.062 395.514 513.855 395.002 514.416 393.037 514.73 391.898 514.796 390.923 514.813 390.312 511.345 389.487 506.919 387.934 502.377 384.995 498.348 382.385 492.485 378.604 489.661 371.767 488.258 368.381 488.208 365.706 485.368 360.537 483.766 357.631 482.082 355.385 481.751 355.566 481.157 355.88 485.186 363.163 483.882 364.104 482.808 364.88 478.746 360.983 476.632 358.869 473.907 356.161 473.626 354.741 469.547 349.44 466.327 345.278 464.709 343.181 462.876 341.992 459.308 339.663 457.558 340.456 453.132 337.566 450.308 335.716 448.888 334.792 448.029 333.091 446.312 329.689 447.666 326.056 444.776 322.835 444.512 322.555 444.297 322.34 444.148 322.208 435.462 317.468 431.812 312.151 430.128 307.973 428.477 303.894 427.337 297.536 423.82 290.055 423.076 288.453 421.59 285.563 418.882 284.407 418.75 284.258 418.601 284.126 418.436 283.994 418.353 283.928 418.238 283.317 418.238 283.317L422.564 268.041 422.73 268.041C424.959 268.041 426.66 268.52 427.816 269.478 428.972 270.436 429.765 271.823 430.211 273.64L432.374 283.301 451.15 283.301 447.881 271.939C446.741 267.942 444.016 265.35 439.739 264.177L439.739 264.061C444.842 263.401 448.921 261.898 451.993 259.553 455.064 257.208 456.6 254.401 456.6 251.098 456.6 247.531 454.784 244.756 451.167 242.791 447.534 240.826 442.481 239.852 435.99 239.852L412.97 239.852 400.584 283.301 415.546 283.301C415.546 283.301 415.678 283.945 415.645 283.945 416.537 290.369 417.164 302.688 410.212 313.142 407.933 316.577 405.175 319.285 403.689 320.755 400.468 323.925 394.639 328.946 385.986 332.793 378.505 336.113 374.244 338.012 368.646 337.087 360.818 335.799 355.946 329.936 354.229 327.674 353.965 327.658 351.834 327.525 350.265 329.226 348.746 330.878 348.994 332.909 349.027 333.19 347.194 333.421 346.021 332.992 345.328 332.595 341.86 330.63 340.753 324.173 343.214 316.643 335.353 321.646 326.733 322.224 321.861 318.277 321.3 317.832 317.369 314.529 317.353 310.103 317.353 307.708 318.492 307.296 319.45 303.299 320.111 300.492 320.821 297.536 319.846 294.365 319.417 292.961 318.641 291.706 318.03 290.864 317.898 290.682 317.584 290.088 317.551 289.923 316.758 287.082 316.775 284.836 316.923 283.317L330.283 283.317C335.981 283.317 340.819 282.772 344.783 281.666 348.746 280.559 351.752 279.007 353.799 277.009 355.847 274.994 356.871 272.616 356.871 269.874 356.871 267.331 355.831 265.234 353.766 263.583 351.702 261.931 348.812 260.94 345.146 260.594L345.146 260.478C349.704 259.85 353.271 258.645 355.88 256.845 358.489 255.045 359.794 252.782 359.794 250.057 359.794 246.59 358.11 244.013 354.757 242.362 351.405 240.71 346.286 239.885 339.383 239.885L314.265 239.885C314.265 239.885 314.232 239.009 316.973 236.813 319.615 234.353 323.05 233.097 328.78 232.833 335.337 232.519 340.506 233.213 350.926 234.749 354.675 235.31 357.928 235.789 360.554 236.202 361.644 236.499 363.312 236.797 365.31 236.615 365.904 236.565 370.693 236.087 374.112 232.272 379.132 226.673 376.985 218.796 376.804 218.185 373.6 212.587 370.38 207.005 367.176 201.407 365.904 201.027 363.708 200.201 361.578 198.302 360.009 196.898 359.034 195.412 358.473 194.372L329.375 144.994C329.788 143.079 330.102 140.222 329.061 137.233 327.691 133.302 325.544 133.567 322.637 128.943 319.549 124.005 320.474 121.247 316.676 117.003 315.52 115.715 314.413 114.806 313.62 114.245 315.371 111.173 315.239 109.291 314.76 108.135 313.72 105.592 310.664 105.641 307.725 101.612 306.866 100.456 305.974 99.1676 306.371 97.995 306.817 96.7235 308.617 95.9473 310.929 95.9308 306.982 88.8958 302.622 85.1305 299.336 82.9837 296.215 80.9524 292.714 79.4827 288.469 75.4202 286.124 73.1743 284.506 71.0604 283.499 69.6237 285.447 69.8714 296.677 71.2421 297.883 67.8567 298.081 67.2787 298.064 66.4035 297.156 65.0658 296.859 64.9667 296.429 64.8181 295.901 64.6199 294.431 64.0584 291.161 62.6713 287.693 60.0785 283.614 57.0069 281.038 53.6215 279.552 51.3095 278.264 49.8728 276.662 48.3039 274.746 46.7351 271.84 44.3901 269.032 42.7552 266.687 41.6322 268.504 41.4836 270.485 41.434 272.616 41.5827 280.889 42.1276 287.363 45.1993 291.458 47.6929 291.458 47.3131 291.492 46.7846 291.458 46.1406 291.458 46.1406 291.326 43.2176 290.286 40.3936 288.981 36.8926 285.249 34.2999 280.856 30.4521 278.974 28.8007 276.298 26.3401 273.243 23.0538 273.59 23.0207 273.937 23.0042 274.284 22.9877 279.205 22.773 287.33 23.8795 297.156 32.2687 302.341 33.6724 306.635 32.698 307.708 30.4026 308.22 29.2961 307.923 28.0245 307.857 27.7603 307.395 25.8282 305.677 24.9199 302.738 22.7895 298.675 19.85 295.686 19.6188 294.811 17.1912 294.398 16.0683 294.381 14.2352 296.363 11.2957 294.53 9.3305 292.714 7.10109 293.259 6.32492 293.952 5.33407 298.262 6.85338 301.516 8.78554 304.868 10.7837 306.007 12.5673 310.978 17.2903 313.224 19.4207 315.14 21.1051 316.395 22.1785 318.261 22.5088 326.188 23.8299 327.113 21.551 327.245 21.2207 327.245 20.7748 326.964 20.1473 325.461 18.7436 323.496 16.6463 321.679 13.7728 318.096 8.10845 315.999 0.842222 317.336 0.132113 318.657-0.577996 324.256 5.43316 327.889 11.4443 328.434 12.3526 333.272 20.4115 337.368 23.2519 338.573 24.0777 339.498 24.3749 340.159 24.0281 340.753 23.7143 341.265 22.7895 341.084 21.9308 341.017 21.617 340.885 21.3858 340.77 21.2372 340.704 21.1546 336.294 16.4316 333.239 10.8003 330.415 5.56527 329.111 0.214684 329.276 0.148627 329.276 0.148627 329.276 0.148627 329.276 0.148627 329.458 0.148627 329.689 0.528453 329.755 0.611024 330.135 1.23856 330.779 1.6349 331.291 2.16336 334.115 5.10288 339.845 10.2388 339.845 10.2388 343.924 14.3178 347.986 21.3033 357.614 38.1973 364.501 50.2856 366.02 52.7132 368.877 56.0491 374.508 62.6382 379.892 66.4035 381.51 67.5925 395.283 77.7487 406.546 101.38 434.934 154.771 442.514 169.022 452.125 186.693 462.677 185.834 465.716 185.586 466.641 183.984 474.27 182.316 482.99 180.401 488.208 179.261 493.575 181.54 496.35 182.713 498.777 184.628 505.333 187.072 506.886 187.65 506.622 187.502 508.124 188.063 514.4 190.392 519.503 192.357 522.987 196.799 523.747 197.774 524.787 199.326 525.629 201.572 522.046 201.109 515.952 200.746 508.851 202.612 506.11 203.322 486.937 208.343 485.45 220.629 484.608 227.598 489.876 233.527 490.206 233.874 493.361 237.325 497.109 238.481 498.695 239.043 499.454 239.323 500.181 239.637 500.924 240 500.082 239.967 499.24 239.951 498.364 239.951L475.013 239.951 462.628 283.4 489.992 283.4C497.159 283.4 503.368 282.376 508.62 280.328 513.871 278.28 517.95 275.258 520.84 271.278 521.996 269.693 522.921 268.008 523.615 266.241 524.292 267.249 525.002 268.289 525.728 269.396 536.892 286.224 544.472 299.22 544.472 299.22 566.089 336.311 563.876 338.722 576.675 356.26 582.669 364.468 588.02 373.138 593.981 381.378 596.64 385.061 601.677 391.931 604.996 402.285 605.872 404.993 606.417 407.305 606.747 408.924 595.022 393.698 591.521 391.006 590.596 391.584 589.225 392.443 592.528 401.096 595.881 407.371 600.538 416.124 604.732 419.262 607.358 428.097 608.266 431.135 608.646 433.712 608.828 435.33ZM396.373 239.835 378.703 239.835 366.317 283.284 383.987 283.284 396.373 239.835ZM483.766 292.466 480.083 292.466 480.083 305.479C480.083 309.674 478.465 311.771 475.195 311.771 471.925 311.771 470.125 309.591 470.125 305.248L470.125 292.466 466.443 292.466 466.443 306.007C466.443 311.986 469.267 314.975 474.898 314.975 480.529 314.975 483.733 311.87 483.733 305.644L483.733 292.449ZM507.034 314.611 498.81 292.466 494.665 292.466 486.375 314.611 490.388 314.611 492.304 308.98 501.007 308.98 503.005 314.611 507.034 314.611ZM526.191 292.466 522.293 292.466 516.695 309.244C516.464 309.921 516.315 310.549 516.249 311.143L516.183 311.143C516.084 310.433 515.952 309.806 515.787 309.277L510.321 292.482 506.308 292.482 514.119 314.628 518.231 314.628 526.191 292.482ZM51.904 242.329C48.5516 240.677 43.4323 239.852 36.5293 239.852L12.3856 239.852 0 283.301 27.4465 283.301C33.1439 283.301 37.9826 282.756 41.946 281.649 45.9094 280.543 48.915 278.99 50.9627 276.992 53.0105 274.977 54.0343 272.599 54.0343 269.858 54.0343 267.315 52.994 265.217 50.9297 263.566 48.8654 261.915 45.9754 260.924 42.2928 260.577L42.2928 260.461C46.8507 259.834 50.4177 258.628 53.027 256.828 55.6362 255.028 56.9408 252.766 56.9408 250.041 56.9408 246.573 55.2564 243.997 51.904 242.345ZM32.8797 273.144C31.2943 274.02 29.098 274.465 26.2906 274.465L20.0812 274.465 22.773 265.597 29.3952 265.597C31.2283 265.597 32.6485 265.961 33.6889 266.687 34.7293 267.414 35.2412 268.372 35.2412 269.561 35.2412 271.08 34.4485 272.269 32.8632 273.144ZM36.0835 255.557C34.6797 256.382 32.8797 256.795 30.6998 256.795L25.1841 256.795 27.5621 248.588 30.7989 248.588C33.5238 248.588 35.4394 248.885 36.5458 249.479 37.6523 250.074 38.1973 251.098 38.1973 252.551 38.1973 253.724 37.4872 254.714 36.0835 255.557ZM104.436 273.029 84.2718 273.029 93.7179 239.819 76.0477 239.819 63.6621 283.267 101.496 283.267 104.436 273.029ZM170.971 283.267 164.349 239.819 142.385 239.819 109.836 283.267 129.256 283.267 134.524 275.275 152.112 275.275 152.971 283.267 170.971 283.267ZM150.444 254.153 151.22 265.036 140.75 265.036 147.868 253.922 149.42 251.28 150.196 249.76 150.609 249.76C150.477 250.371 150.411 251.362 150.411 252.733L150.444 254.153ZM237.54 240.578C235.657 240.182 233.345 239.819 230.587 239.538 227.829 239.257 225.22 239.092 222.743 239.092 215.031 239.092 208.293 240.116 202.563 242.18 196.816 244.244 192.357 247.316 189.17 251.412 185.983 255.507 184.381 260.164 184.381 265.399 184.381 271.229 186.726 275.803 191.399 279.089 196.073 282.376 202.728 284.027 211.332 284.027 216.451 284.027 221.141 283.466 225.402 282.326L228.919 270.353C226.773 271.13 224.543 271.724 222.248 272.17 219.952 272.616 217.888 272.831 216.038 272.831 211.86 272.831 208.673 272.071 206.477 270.552 204.28 269.032 203.157 266.918 203.157 264.21 203.157 261.502 203.884 259.272 205.337 257.175 206.79 255.061 208.888 253.426 211.596 252.237 214.304 251.048 217.525 250.47 221.224 250.47 224.064 250.47 226.475 250.668 228.457 251.081 230.439 251.478 232.272 251.973 233.94 252.568L237.54 240.595ZM283.697 239.819 265.531 258.661 264.507 259.817 264.342 259.817 270.023 239.819 252.353 239.819 239.967 283.267 257.637 283.267 263.483 262.674 263.649 262.674C263.929 263.83 264.177 264.656 264.425 265.151L272.352 283.267 293.82 283.267 281.666 260.544 304.604 239.819 283.664 239.819Z" transform="matrix(1 0 0 1.00259 655.127 130)"/></g></svg>