<?xml version="1.0" encoding="iso-8859-1"?>
<!-- Uploaded to: SVG Repo, www.svgrepo.com, Generator: SVG Repo Mixer Tools -->
<svg fill="#000000" height="800px" width="800px" version="1.1" id="Layer_1" xmlns="http://www.w3.org/2000/svg" xmlns:xlink="http://www.w3.org/1999/xlink" 
	 viewBox="0 0 512 512" xml:space="preserve">
<g>
	<g>
		<path d="M503.83,21.787H8.17c-4.512,0-8.17,3.657-8.17,8.17v452.085c0,4.513,3.658,8.17,8.17,8.17h495.66
			c4.512,0,8.17-3.657,8.17-8.17V29.957C512,25.444,508.342,21.787,503.83,21.787z M16.34,38.128h397.617v49.021H16.34V38.128z
			 M495.66,473.872H16.34V103.489H495.66V473.872z M495.66,87.149h-65.362V38.128h65.362V87.149z"/>
	</g>
</g>
<g>
	<g>
		<path d="M471.149,119.83H40.851c-4.512,0-8.17,3.657-8.17,8.17v256c0,4.513,3.658,8.17,8.17,8.17s8.17-3.657,8.17-8.17V136.17
			h413.957v305.021H49.021v-24.511c0-4.513-3.658-8.17-8.17-8.17s-8.17,3.657-8.17,8.17v32.681c0,4.513,3.658,8.17,8.17,8.17
			h430.298c4.512,0,8.17-3.657,8.17-8.17V128C479.319,123.487,475.661,119.83,471.149,119.83z"/>
	</g>
</g>
<g>
	<g>
		<circle cx="462.979" cy="62.638" r="8.17"/>
	</g>
</g>
<g>
	<g>
		<path d="M386.978,391.898L263.076,177.294c-1.46-2.527-4.156-4.085-7.075-4.085c-2.92,0-5.616,1.558-7.075,4.085l-53.781,93.151
			c-2.256,3.908-0.917,8.904,2.99,11.161c3.908,2.254,8.903,0.917,11.16-2.99L256,197.719l109.751,190.094H146.249l46.705-80.896
			c2.256-3.907,0.917-8.904-2.99-11.161c-3.908-2.256-8.904-0.918-11.161,2.99l-53.781,93.151c-1.46,2.527-1.46,5.643,0,8.17
			c1.46,2.527,4.156,4.085,7.075,4.085h247.805c2.919,0,5.616-1.558,7.075-4.085C388.438,397.541,388.438,394.425,386.978,391.898z"
			/>
	</g>
</g>
<g>
	<g>
		<path d="M256,344.238c-4.512,0-8.17,3.657-8.17,8.17v10.894c0,4.513,3.658,8.17,8.17,8.17c4.512,0,8.17-3.657,8.17-8.17v-10.894
			C264.17,347.895,260.512,344.238,256,344.238z"/>
	</g>
</g>
<g>
	<g>
		<path d="M256,238.57c-4.512,0-8.17,3.657-8.17,8.17v72.987c0,4.513,3.658,8.17,8.17,8.17c4.512,0,8.17-3.657,8.17-8.17V246.74
			C264.17,242.227,260.512,238.57,256,238.57z"/>
	</g>
</g>
</svg>